<svg xmlns="http://www.w3.org/2000/svg" width="670" height="670" viewBox="0 0 670 670"><linearGradient x1="0%" x2="0%" y1="0%" y2="100%" id="a"><stop offset="0%" stop-color="#a3e6bd"/><stop offset="100%" stop-color="#82c59a"/></linearGradient><path fill="url(#a)" d="M540.774 163.772c14.53-14.542 9.387-43.736 9.387-43.736s-29.929-5.878-44.462 8.651c-10.565 10.572-15.492 23.828-13.672 34l-26.144 25.323c-14.5-2.588-19.756-3.617-33.244 2.168-2.611-2.628-27.7-46-27.7-46l-57.8-.722-29.634 41.9 8.674 50.571 28.909-42.626 18.065 1.445 16.611 32.513-13 33.234L160.45 439.628 118.956 551.14 229.806 509l179.47-216.708 33.569-11.948 32.519 16.616 1.445 18.065-47.294 24.228 55.244 13.338 41.9-29.623-.721-57.792s-33.281-24.012-46.578-31.162c7.712-17.342 2.682-19.972 2.3-29.348l25.448-27.17c10.121 1.64 23.205-3.284 33.666-13.724zm-96.492 82.908c-10.711 10.7-24.482 14.269-30.774 7.985-6.3-6.3-2.736-20.072 7.967-30.778s24.478-14.269 30.779-7.967c6.287 6.28 2.726 20.061-7.972 30.76z"/></svg>