<svg xmlns="http://www.w3.org/2000/svg" width="670" height="670" viewBox="0 0 670 670"><linearGradient x1="0%" x2="0%" y1="0%" y2="100%" id="a"><stop offset="0%" stop-color="#9f9be1"/><stop offset="100%" stop-color="#7b76bc"/></linearGradient><path class="ptn" fill="url(#a)" d="M479.566 177.783c-1.695 99.093-21.2 117.3-107.077 124.209a185.643 185.643 0 0 1 3.943-3.484c12.8-10.9 12.236-26 19.073-46.912a82.7 82.7 0 0 1-9.179 7.419s11.568-10.431 11.114-23.207l-9.789 10.23s18.677-20.364 16.027-62.235c-8.214 9.443-32.65 34.071-51.557 34.071-28.383 4.1-51.374 8.2-64.872 24.6-4.955 6.013-3.614 11.55-3.614 11.55s-29.792 8.955-35.577 18.523c-3.791 6.285-4.586 13.621-4.143 20.717-41-12.833-52.24-41.725-53.484-115.478C174.283 176.488 23.819 126.756 4 127.667c1.809 38.269 10.267 80.633 17.3 109.379a8.265 8.265 0 0 1 1.6-.294c15.331.258 33.99 2.021 34.246 4.814.56 6.058-14.659 10.439-31.519 13.665a392.636 392.636 0 0 0 24.579 65.9c.209-.1.391-.2.592-.295 16.557-7.86 31.5-12.742 32.423-8.981 1.268 5.278-18.745 18.307-26.344 22.5 12.186 22.863 26.561 42.7 43.467 58.995a.959.959 0 0 1 .133-.123c13.809-12.129 26.026-22.281 28.757-17.582 0 0-11.459 22.5-16.706 28.433A179.227 179.227 0 0 0 173.8 436.5c14.834-11.788 22.949-24.545 27.732-23.126a86.625 86.625 0 0 1-8.1 28.065c25.768 5.127 54.633 5.972 87.059 1.951l.538-.251s-8.46 60.361-45.39 84.056c-19.848 12.742 18.028 10.9 27.74 7.792 10.092-3.234 39.633-36.457 39.633-36.457s-2.7 26.432-9 38.272c-3.526 6.619 5.394 5.472 12.617 5.472a14.95 14.95 0 0 0 14.406-10.025c2.456-7.459 8.1-21.875 8.1-21.875.355-7.322 4.1-10.624 5.873-11.777 1.741 1.153 5.5 4.455 5.852 11.777 0 0 5.648 14.416 8.115 21.875a14.94 14.94 0 0 0 14.411 10.025c7.192 0 16.127 1.147 12.595-5.472-6.305-11.84-9.007-38.272-9.007-38.272s29.552 33.223 39.639 36.457c9.712 3.1 47.6 4.95 27.742-7.792-36.916-23.7-45.386-84.056-45.386-84.056l.532.251c32.446 4.021 61.3 3.176 87.075-1.951a86.387 86.387 0 0 1-8.105-28.065c4.8-1.419 12.909 11.338 27.747 23.126a179.314 179.314 0 0 0 61.279-32.416c-5.252-5.938-16.706-28.433-16.706-28.433 2.733-4.7 14.943 5.453 28.749 17.582a1.33 1.33 0 0 1 .131.123c16.919-16.3 31.293-36.132 43.472-58.995-7.594-4.2-27.617-17.224-26.339-22.5.913-3.761 15.855 1.121 32.405 8.981.2.1.385.193.6.295a392.727 392.727 0 0 0 24.592-65.9c-16.863-3.226-32.088-7.607-31.53-13.665.256-2.793 18.913-4.556 34.246-4.814a8.057 8.057 0 0 1 1.6.294c7.031-28.751 15.48-71.11 17.29-109.379-19.827-.917-170.283 48.815-186.441 50.11zm-228.92 117.345c12.538-5.372 36.963-3.742 36.963-3.742s4.976-.261 10.134 10.621c-18.719-1.499-34.173-3.598-47.097-6.879z"/></svg>