<svg xmlns="http://www.w3.org/2000/svg" width="670" height="670" viewBox="0 0 670 670"><linearGradient x1="0%" x2="0%" y1="0%" y2="100%" id="a"><stop offset="0%" stop-color="#616a7f"/><stop offset="100%" stop-color="#40485e"/></linearGradient><g fill="url(#a)"><path class="ptn" d="M266.41 408.516l-45.51-12.334-.75-136.842 172.189-93.93A178.969 178.969 0 0 0 211.2 464.218zm137.177-147.064l45.5 12.315.75 136.853-172.179 93.945A178.977 178.977 0 0 0 458.81 205.75z"/><path class="ptn" d="M436.872 283.047l-56.087-15.191L558 89.061 232.463 266.644l.662 120.269 56.09 15.2L112 580.939l325.524-177.616zM194.348 519.018L358.9 352.98l-11.679-11.612-50.767 47.25-48.483-13.134-.552-100.018 228.239-124.5-164.564 166.022 11.674 11.6 50.785-47.241 48.465 13.128.551 100.028z"/></g></svg>