<svg xmlns="http://www.w3.org/2000/svg" width="670" height="670" viewBox="0 0 670 670"><linearGradient x1="0%" x2="0%" y1="0%" y2="100%" id="a"><stop offset="0%" stop-color="#d7645e"/><stop offset="100%" stop-color="#b44039"/></linearGradient><path class="ptn" d="M597.419 143.541s-71.911-21.123-82.036-24.932c-12.026-4.536-29.414.418-35.366 15.861-8.253 21.944-36.451 101.727-36.666 102.405.38-9.1 1.225-57.3 1.225-80.212 0-15.111-12.975-30.28-32.547-30.28-13.4.815-27.237 1.832-37.885 3.442-10.671 1.6-25.822 8.93-25.822 32.607s-9.6 323.107-10.066 336.1 10.808 23.8 19.849 24.447c9.019.642 44.1.255 55.848-.211 16.384-.657 23.391-15.313 24.785-24.236s.634-67.11.634-67.11 27.1 61.879 30.858 71.034c5.273 12.853 27.5 22.741 49.686 18.134 21.841-4.527 53.418-13.593 53.418-13.593 15.055-5.289 24.836-19.649 17.963-31.865 0 0-87.33-147.661-88.849-150.821 1.674-2.517 104-148.278 104-148.278 8.275-9.819 5.271-28.719-9.029-32.492zM300.241 200c-31.932-47.733-73.293-74.616-119.649-77.735-39.128-2.644-77.556 3.053-99.451 11.639-22.363 8.78-24.265 30.038-20.759 52.708 1.877 12.105 34 166.641 34 166.641s30.512 153.174 35.718 172.373c4.57 16.873 18.054 29.231 41.113 27.149 93.462-13.758 154.126-85.706 164-196.963 5.23-58.916-7.172-114.258-34.976-155.81zm-58.6 161.42c-5.122 14.514-19.335 39.064-50.839 38.263-1.615-4.305-19.64-101.621-24.578-136 13.71-7.384 36.855-7.451 50.45 1 28.574 17.764 36.099 65.239 24.97 96.736z" fill-rule="evenodd" fill="url(#a)"/></svg>