<svg data-name="レイヤー 1" xmlns="http://www.w3.org/2000/svg" viewBox="0 0 670 670"><path d="M469.21 216.14s93.17-36.64 107.24-42.48S596 153.39 596 153.39l12-31.53s2.91-7.06-.66-10-10.76-.62-10.76-.62l-183.24 69.1c-10.48 3.87-10.34 9.05-10.34 12.16v25.61a43.54 43.54 0 0 1-5.89 21.13A49.57 49.57 0 0 1 387.3 251s-.62-30.88-32.72-45.26h-.34l-4.16-60.23s-1.27-33.59-15.08-33.61c-13.81 0-15.07 33.63-15.07 33.63l-4.16 60.23h-.34C283.32 220.13 282.7 251 282.7 251a49.56 49.56 0 0 1-9.8-11.77 43.55 43.55 0 0 1-5.9-21.12V192.5c0-3.11.12-8.29-10.34-12.21l-183.21-69.1s-7.12-2.42-10.76.62-.66 10-.66 10l12 31.53s5.5 14.43 19.57 20.27 107.24 42.48 107.24 42.48 8 2.76 8.56 9-.65 10.56-6.89 9.91-129.46-19.08-129.46-19.08-6.09-1.33-8.35 1.29 0 12.8 1.27 16.25 16 35.21 45.42 40c23.68 3.89 95.74 12.63 95.74 12.63s7.92.28 10.69 5.57 4 15.31-5.28 15.18-103.6-2.51-103.6-2.51-6.39-1-8.75 2.51-1.25 8.07 1.25 12.67 21 33.83 42.08 34.25 74.13.46 74.13.46a10.85 10.85 0 0 1 10 6.62c1.42 3 6.47 13.95 13.35 26.08l-25.61 17.11q-3-2.77-6.14-5.13a89.7 89.7 0 0 0-17.53-10.32 100.36 100.36 0 0 0-28.44-7.88 69.82 69.82 0 0 0-8-.57 18.06 18.06 0 0 0-.13 36.12h.95c.84.05 2.19.17 3.9.41a65.28 65.28 0 0 1 13.52 3.43 56.93 56.93 0 0 1 10.56 5.21A48.36 48.36 0 0 1 197 437.28a40.93 40.93 0 0 1 4.43 7.46 48.28 48.28 0 0 1 2.85 8.06 64.93 64.93 0 0 1 1.96 16.2 72.32 72.32 0 0 1-1.43 14.58c0 .19-.06.28-.06.28a18 18 0 0 0 35 8.78c.12-.49.75-3.06 1.37-7.17a112.91 112.91 0 0 0 1.2-16.46 104 104 0 0 0-1.62-18.49 87.67 87.67 0 0 0-5.73-19.13l24.94-16.67a61.62 61.62 0 0 0 7.85 7.71 144.45 144.45 0 0 0 16.63 10.75 9.42 9.42 0 0 1 5 8.31c.22 7.81 0 103.74 0 103.74s-.45 14.52 15.07 14.52 15.07-14.52 15.07-14.52v-92.88s-.88-10.68 15.53-10.68 15.53 10.68 15.53 10.68v92.85s-.45 14.52 15.07 14.52 15.07-14.52 15.07-14.52-.22-95.93 0-103.74a9.42 9.42 0 0 1 5-8.31 144.5 144.5 0 0 0 16.63-10.75 61.62 61.62 0 0 0 7.85-7.71l24.94 16.67a87.66 87.66 0 0 0-5.72 19.13 103.88 103.88 0 0 0-1.71 18.51 112.78 112.78 0 0 0 1.21 16.46c.61 4.11 1.24 6.68 1.36 7.17a18 18 0 0 0 35-8.78l-.06-.28a72.28 72.28 0 0 1-1.46-14.57 64.85 64.85 0 0 1 1.95-16.18 48.35 48.35 0 0 1 2.85-8.06 40.89 40.89 0 0 1 4.43-7.46 48.34 48.34 0 0 1 12.91-11.89 57 57 0 0 1 10.57-5.21 65.28 65.28 0 0 1 13.52-3.45c1.72-.24 3.06-.36 3.9-.41h.95a18.06 18.06 0 0 0-.13-36.12 69.79 69.79 0 0 0-8 .57 100.36 100.36 0 0 0-28.44 7.88 89.7 89.7 0 0 0-17.53 10.32q-3.11 2.35-6.14 5.13L429 387c6.88-12.13 11.93-23 13.35-26.08a10.85 10.85 0 0 1 10-6.62s53 0 74.13-.46 39.58-29.65 42.08-34.25 3.61-9.19 1.25-12.67-8.75-2.51-8.75-2.51-94.3 2.37-103.6 2.51-8.05-9.88-5.28-15.18 10.69-5.57 10.69-5.57 72.05-8.74 95.74-12.63c29.43-4.83 44.11-36.59 45.42-40s3.64-13.5 1.27-16.25-8.35-1.29-8.35-1.29-123.17 18.49-129.41 19.14-7.41-3.65-6.89-9.91 8.56-9.09 8.56-9.09zM335 363.2a45.63 45.63 0 1 1 45.52-45.63A45.57 45.57 0 0 1 335 363.2z" fill="#cdb4f5" fill-rule="evenodd"/></svg>