<svg xmlns="http://www.w3.org/2000/svg" width="670" height="670" viewBox="0 0 670 670"><linearGradient x1="0%" x2="0%" y1="0%" y2="100%" id="a"><stop offset="0%" stop-color="#f868a3"/><stop offset="100%" stop-color="#f02d7d"/></linearGradient><g fill="url(#a)"><circle class="ptn" cx="288.691" cy="324.144" r="30.699"/><circle class="ptn" cx="381.309" cy="324.144" r="30.699"/><path class="ptn" d="M335 120.178c-34.341 0-215.11 193.075-193.157 239.525 11.981 21.156 55.966 26.207 77.255 28.048 2.65 4.825 13.291 45.465 15.638 58.306 1.472 8.053.929 14.258-1.2 19.095-5.723 13.008-12.858 23.112-10.3 38.036 2.491 14.516 17.043 31.166 26.947 35.849 11.429-2.861 25.5-30.178 29.138-45.788 0 17.171 9.365 50.211 27.2 56.573 19.092-4.281 25.442-31.077 28.475-46.686 3.033 15.609 8.828 41.1 28.475 46.686 17.834-4.02 27.2-39.4 27.2-56.573 3.643 15.61 16.633 40.325 29.138 45.788 13.512-3.642 24.456-21.333 26.947-35.849 2.562-14.924-4.573-25.028-10.3-38.036-2.128-4.837-2.671-11.042-1.2-19.095 2.347-12.841 13.771-54.128 16.313-58.418 23.132-1.765 65.779-7.82 76.58-27.936C550.11 313.253 369.341 120.178 335 120.178zm49.431 282.583c-21.565 0-40.219-13.085-49.431-32.171-9.212 19.086-27.866 32.171-49.431 32.171-30.69 0-55.57-26.451-55.57-59.08s24.88-59.081 55.57-59.081c21.565 0 40.219 13.085 49.431 32.171 9.212-19.086 27.866-32.171 49.431-32.171 30.69 0 55.57 26.451 55.57 59.081s-24.88 59.08-55.57 59.08z"/></g></svg>