<svg xmlns="http://www.w3.org/2000/svg" width="670" height="670" viewBox="0 0 670 670"><linearGradient x1="0%" x2="0%" y1="0%" y2="100%" id="a"><stop offset="0%" stop-color="#74b586"/><stop offset="100%" stop-color="#519162"/></linearGradient><path class="ptn" fill="url(#a)" d="M441.9 263.577c18.333-33.155 41.957-60.478 65.838-87.2-15.633-9.493-29.734-20.531-46.137-29.257-6.491 41.142-16.231 79.041-33.768 109.141-3.9-21.976-18.769-34.028-35.455-43.313-17.206-9.583-39-15.5-63.031-15.752-49.781-.525-86.275 20.338-108.583 48.944-23.564 30.208-32.66 72.5-38.817 118.7C175.933 409.956 160.919 450.609 142 483a406.41 406.41 0 0 0 150.779 38.821c44.747 2.479 92.641 1.471 121.546-12.38-41.267-.6-65.995-23.958-62.463-64.14 2.706-30.76 29.763-55.609 63.028-55.706 34.516-.1 57.806 21.693 60.215 53.451a52.144 52.144 0 0 1-8.445 33.2c-1.284 1.944-3.822 3.642-3.374 6.194 40.577-14.632 64.4-56.72 64.711-113.093.303-57.53-27.797-108.909-86.097-105.77z" fill-rule="evenodd"/></svg>