<svg data-name="レイヤー 1" xmlns="http://www.w3.org/2000/svg" viewBox="0 0 670 670"><path d="M532 290.17c-46.59-39.82-124.23-7.85-129-10.86-23.89-40.43-.6-164.71 0-170.14-34-9-97.35-1.81-107.5 0C109.72 163.47 115.09 245.52 116.29 254c34.64-6.64 100.33 105 100.33 105s.6 7.24 0 10.86c9 4.82 11.95 27.75 10.75 32.58-35.83.6-75.25 42.84-78.83 47.06-22.1 65.71 73.46 77.18 82.46 79.59 1.79 12.07 43 36.2 43 36.2h17.91c-14.33-41.27 49.45-11.58 60.92-7.24 34.4-2.9 85.28-77.47 89.58-83.26 31.54-9.41 82.42-61.54 82.42-61.54s-4.3 10.13-3.58 10.86C585 332.88 537 294.51 532 290.17zM252.46 532.71c-4.19-3-10.75-14.48-10.75-14.48S265.59 514 274 532.71c.55 6.03-15 10.86-21.54 0zM514 341.74c.22 4.76-8.74 45.71-35.83 47.07-4.93.22-12.32-.68-14.34-3.63-2.91-2.94-9-7.69-21.5 3.63-2.46 1.58-26.87 17.19-21.5 32.58 2 4.29 8.51 11.76 21.5-3.63 0 4.08-7.16 35.53-35.83 47.07-5.38 2-26.21-1.36-32.25 18.1-1.12 1.58 4.48 12.67 28.67 0 4.25-3.62 11.19-8.15 17.91-14.48-2.91 5-13.88 49.77-68.08 47.06-4-1.59-11.2-5.66-14.34-7.24-2.46-1.36-18.14-7-28.66 14.48 0 0-5.12-18.62-3.59-25.34-.51-10.35 1.54-42.93 7.17-50.68 3.59-6.73 12.29-18.62 10.75-29 .51-5.68 10.75-26.37 32.25-39.82-2.56 3.62-17.24 24-7.17 39.82 2.47 1.36 24.19 11.09 28.67-25.33.45-5-2.46-37.56 3.58-47.07 1.57-2 11.2-18.77 39.42-29 2.69-1.58 27.1-20.36 28.67-32.58-1.35 13.35-8.06 27.83-14.33 36.2-2 2-21.95 12.67-14.34 47.06.67 2.72 2.69 10.19 17.92 10.86-.9-2-2.69-43.66 35.83-47.05-3.36 2.48-20.16 18.55-10.75 32.58 2.24 1.8 24.41 5.2 39.42-25.35 1.57-3.16 6.27-10.63 14.33-14.48-1.15 3.69-4.51 11.16-3.58 18.17z" fill="#a00f00" fill-rule="evenodd"/></svg>