<svg xmlns="http://www.w3.org/2000/svg" width="670" height="670" viewBox="0 0 670 670"><defs><style>.a{fill-rule:evenodd}</style></defs><linearGradient x1="0%" x2="0%" y1="0%" y2="100%" id="gradient"><stop offset="0%" stop-color="#e47e51"/><stop offset="100%" stop-color="#c0592c"/></linearGradient><g fill="url(#gradient)"><path class="a ptn" d="M413.087 498.259l-2.823.678c-3.031 1.262-4.808 3.228-8.808 3.952-3.241.586-9.056-.914-11.292.79-1.736 1.323-1.633 9.209-.226 10.728 3.643 3.932 7.726-.971 10.05-2.371 6.512-3.925 16.556-1.072 16.487-11.97-.907-1.008-1.465-1.772-3.388-1.807zm-82.787 11.21c-4.1 2.682-3.586 12.151 2.534 10.136 5.022-1.654 3.482-10.349-2.534-10.136zM422.643 181.3c1.208 1.249 3.48 1.082 5.412 1.643 2.741.8 4.65 2.558 7.539 3.093 3.65.676 7.333-2.1 10.633-.193 1.57.907 2.215 2.823 3.286 4.253l3.769 3.189 3.19 3.286c1.833 1.269 6.417 3.137 8.119.387 2.707-4.376-2.6-8.879-4.157-10.825-2.288-2.867-10.078-9.053-14.207-9.762-4.246-.73-7.406 1.5-11.6.773-3.507-.607-5-2.663-9.279-2.61-1.963 1.041-3.838 1.609-3.286 4.833.138.816.123 1.457.581 1.933zm27.45 22.034c-2.34-4.452-1.706-8.043-8.6-8.312-1.538.639-2.747.74-3.672 1.933-3.014 3.89 2.806 8.233 4.349 10.535l2.319 4.929c1.06 2.514 2.223 9.287 6.476 7.636 3.67-1.424 3.663-6.129 2.514-10.342-.714-2.602-2.274-4.263-3.386-6.379zm-56.543-6.572l-3.286.1c2.883 1.711 7.617 1.1 11.212 2.03 1.527.395 7.086 6.315 7.442 7.926l.194.1v-3.286a15.163 15.163 0 0 1 2.029 2.8c.619.8 4.542 3.432 5.993 2.9 3.463-1.271.371-7.119-.677-8.506a21.368 21.368 0 0 1-3.286-5.316c-.766-2.073-1.179-4.635-2.417-6.282-1.017-1.354-3.01-2.146-4.349-3.19-1.983-1.547-2.855-2.651-6.669-2.61-3.391 1.356-13.118 1.367-14.885 3.77-3.182 4.325 5.393 9.081 8.699 9.564zM275.132 217.45c4.765-1 6.682-10.256-1.439-9.965-1.482.608-3.074.726-3.543 2.326-.864 2.949 1.822 8.305 4.982 7.639zm234.477 47.355c7.416-2.281 3.526-13.693-4.018-13.99-2.5.989-4.551 1.554-5.209 4.316-1.077 4.517 4.449 11.144 9.227 9.674zM360.729 229c2.2 1.461 7.278 2.847 10.306.966 3.364-2.091 2.881-7.7 1.288-11.057-1.361-2.872-5.47-11.232-7.729-12.561l-4.616-1.395c-1.31-.47-1.762-1.159-3.543-1.181l-.644.322c-.732 2.285-.2 5.645-.752 8.588-.56 3-1.805 7.031-.537 10.091 1.184 2.851 3.786 4.599 6.227 6.227zm1.576 10.586c-7.9 3.559-1.361 11.8 2.577 10.467.864-1.383 3.222-1.918 4.186-4.026 2.055-4.49-3.022-6.608-6.763-6.441z"/><path class="a ptn" d="M335 123c-116.9 0-212 95.1-212 212s95.1 212 212 212 212-95.1 212-212-95.1-212-212-212zm194.542 205.6l.87.193c2.072 1.327.65 7.156-.677 8.216-2.718 2.173-8.86-1.152-12.274.58-3.581 1.815-2.143 5.672-4.157 8.7-1.911 2.872-5.023 3.385-8.409 4.832-1.387.594-4.989 2.3-6.282.387-.808-1.193.093-2.965.58-3.769 2.289-3.784 5.075-2.3 9.181-3.963a11.205 11.205 0 0 0 4.93-4.93c.685-1.3.951-2.981 2.126-3.769l3.673-.966a23.4 23.4 0 0 0 3.576-2.223zm-83.992 68.815l-3.673-3.383a4.263 4.263 0 0 0-3.769-.193v-.967c-2.652.794-3.971 3.216-6.573 3.866-2.178.544-4.187-.617-5.8-1.063-4.629-1.28-7.731 1.088-8.6 4.639a5.744 5.744 0 0 0 .483 3.093c1.542 5.5 6.229 5.01 12.179 3.77 1.307-.273 2.493-.863 3.962-.484a5.9 5.9 0 0 1 .773 5.027c-1.453 5.441-4.481 5.11-10.245 6.089a12.738 12.738 0 0 1-4.736.193c-3.693-.953-3.7-6.512-5.509-9.376-1.656-2.62-3.4-6.15-6.959-6.862-1.739-.348-3.279.393-4.736 0-1.086-1.846-.2-5.044-2.32-5.9-1.723-.692-6.744.262-7.732.967-1.3.93-4.355 6.463-3.673 9.279.966 3.984 4.568 1.773 7.249 3.576.822 3.778-2.248 7.883-1.45 12.468.32 1.836 3.456 5.545 2.707 6.766-.777 1.265-3.882 1.458-5.027 2.416-1.407 1.177-3.532 2.284-4.736 3.673l-1.836 3.286c-2.035 2.612-5.007 4.053-6.573 7.249h1.744c-.9 1.886-2.363 8.764-5.8 6.476-2.192-1.459-2.523-5.006-4.929-6.379l2.029-.1c-.941-1.226-3.844-3.787-2.223-6.186 1.317-1.947 4.7-1.157 7.346-1.836 2.019-.518 6.944-2.748 7.829-4.253l.677-4.059a7.69 7.69 0 0 0-.1-3.77c-1.02-2.544-7.061-1.123-9.086-2.706-2.045-1.6-.046-5.157-3.672-5.9-2.79-.568-3.824 2.488-4.543 4.156-1.146 2.659-3.29 6.5-6.089 7.443-3.284 1.105-6.872-1.141-8.119 2.126l-.1 2.706c0 5.138 2.458 6.359 4.35 9.376.853 1.36.146 2.919 2.513 2.9l1.546 4.833c.266 1.843-1.664 2.568-2.61 3.286l-2.512 2.223c-1.862 1.237-6.091 2.145-6.67 4.543-.44 1.825 1.412 2.77 2.127 3.576 2.673 3.016 3.977 6.428 6.379 9.569.846 1.107 3.3 3.136 2.03 5.316-1.15 1.977-4.232.2-5.607-.387-2.329-1-6.082-2.657-6.765-5.219-.72-2.7 2.936-7.152-.677-8.6l-4.252-.967c-3.051-1.236-6.864-3.821-11.6-2.416-2.353.7-3.1 3.356-5.509 3.673-5.108-1.98.706-7.847 2.706-9.182 3.1-2.074 8.52.866 11.792-1.547 1.783-1.315 3.511-8.384 4.059-11.115l.484-5.219c.485-1.558 2.174-1.923 2.512-3.673.513-2.646-1.9-4.137-1.256-6.573.714-2.7 5.987-3.079 4.639-8.892-.759-3.278-2.889-4.778-5.122-6.572l-1.74-2.223a13.584 13.584 0 0 0-7.636-4.253h-6.959l-5.8-.58c-3.723.345-7.037 1.8-8.216-2.416-1.421-5.081 3.093-6.181 5.606-7.829 1.09-.715 1.985-2.156 4.06-1.837 2.84.437 4.435 1.81 6.959 2.513a7.325 7.325 0 0 0 5.509-.676 13.148 13.148 0 0 0 4.543-4.93c.854-1.7 1.253-4.265 3.19-4.832 2.407-.706 5.943 3.167 7.925 3.769v1.74c3.043 1.088 8.895 1.257 11.116-.483 1.325-5.637-5.413-8.137-5.7-11.792-.274-3.444 4.385-4.224 6.089-5.9a8.376 8.376 0 0 0 2.416-3.866 8.953 8.953 0 0 0-.193-3.383c-.567-3.409 2-5.295 4.252-5.992l.1-.194h-1.548l2.32-1.353c2.138-1.363 4.088-3.135 6.572-4.156 2.028-.833 4.554-.93 5.7-2.61 1.831-2.677-.442-9.165 3.189-10.052 4.357-1.064 7.877 3.353 11.695 4.06a28.225 28.225 0 0 0 10.922-.484c1.325-.275 2.855-.039 3.383.774 1.72 2.643-.852 11.639-3.963 11.018-3.814-.761-5.7-3.739-8.409-5.606-.843-.58-2.479-1.9-3.866-.966-1.533 1.026-1.533 3.608-2.223 5.509a13.2 13.2 0 0 0-1.16 3.866h-1.449c-.6 7.589 9.97 9.422 16.431 10.052.466 2.69-2.2 4.493-1.643 7.249.333 1.664 3.054 5.247 1.933 6.959-.734 1.019-2.466.884-3.77 1.353-2.231.8-3.529 5.259-1.159 6.96s6.593.783 7.441-1.644c.563-1.607-.02-3.641.581-5.026 4.01-.756 5.059 1.363 5.315 5.123 1.951 1.546 3.807.657 6.766 1.16 3.3.56 7.6 1.312 9.472-1.16 2.1-2.77.3-7.727-.29-10.728l-.676-4.833c-1.5-4.348-9.839-.93-11.019-4.833-1.028-3.4 3.013-3.823 4.64-5.026 1.384-1.023 1.744-3.18 1.74-5.606h-1.161c.408-5.97 10.071-6.754 9.956 0-1.943-.039-1.871 1.625-2.417 2.9-1.708 3.993.272 7.928 2.8 9.955v-1.353h.1l2.513 3.48c1.643 2.63 2.906 6.512 5.993 7.635 1.917.7 5.184.117 7.056.483 5.937 1.169 13.316 3.069 16.237 7.358a4.274 4.274 0 0 1 0 4.35l-7.249 9.955c-1.279 2.112-1.352 5.507.677 6.862 2.305.326 4.2-1.152 5.9-1.836a36.452 36.452 0 0 1 6.089-1.45c2.224-.461 5.167-.373 5.8 1.353.96 2.622-6.267 6.8-8.022 7.539-1.723.725-4.749 1.362-6.573.29-1.242-.73-3.079-2.922-5.219-2.223-4.115 1.345-5.094 4.8-8.022 7.153l-5.606 4.349c-1.5 1.172-5.083 3.092-7.829 1.45-2.434-1.456-1.823-5.292-.29-7.249 3.329-4.25 12.542-7.78 14.015-13.532 1.314-5.139-5.515-7.183-8.121-9.085zm-32.572 37.211c-1.973 2.1-9.09 1.788-8.989-1.836 1.758-1.622 4.075-1.7 6.572-2.706 2.139-.012 4.169 2.676 2.417 4.542zm-127-6.765c.441-1.224 6.337-7.5 7.539-8.216 1.049-.624 2.519-.464 3.769-.967 3.434-.075 7.832 2.141 5.413 5.7-1.626 2.394-4.956.4-7.926 1.16-2.714.7-4.313 8.614-7.635 6.186a3.562 3.562 0 0 1-1.163-3.863zm-.58-40.208c-4.571 3.4-13.689-3.884-5.993-7.346 3.262-.081 8.009 1.387 7.249 4.929a3.833 3.833 0 0 1-1.254 2.417zm15.558 10.247c-.708-1.737-.373-4.094-.774-6.186-.391-2.05-1.918-6.327-1.353-8.409.4-1.479 1.458-1.956 2.707-2.609 4.14.022 5.155 3.522 7.539 5.316 1.139.857 2.66 1.448 3.48 2.609a4.006 4.006 0 0 1 .676 3c-.5 2.146-3.062 1.378-4.639 2.416-1.876 1.234-1.906 4.948-3.866 5.9-1.56 1.254-3.363-1.037-3.77-2.037zm12.082 33.539c2.376-.015 4.307 3.433 3.383 6.186-.774 2.3-4.3 3.32-7.056 2.126a3.263 3.263 0 0 1-1.933-2.416c-1.032-4.035 3.144-4.882 5.606-5.898zm3.189-5.9c-1.955-.7-7.513-5.777-5.7-8.989.605-1.074 1.766-1.357 2.9-1.933l4.64.29c2.818 1.091 3.526 5.078 6.185 6.476 1.323.695 4.638.384 5.316 1.739.948 2.335-3.291 5.906-5.8 5.317l-3.576-2.223zm16.722 49.487c-1.669 2.526-6.733 1.737-8.6.1-.711-2.905 2.678-3.441 4.64-4.349 2.482-.084 5.58 1.797 3.96 4.251zm-15.272-96.266q.291-.192.58-.386a2.532 2.532 0 0 1 1.933.87 3.985 3.985 0 0 1 0 2.126 1.8 1.8 0 0 1-1.353.387c-.872-.726-1.624-1.482-1.16-2.997zm72.974-52.869c-.007-2.321 1.949-2.483 3.576-3.19 2.059-.105 4.886 1.287 3.576 3.48-1.103 2.359-5.918.693-7.152-.29zm44.75-56.542l2.127-1.064c6-.005 11.348 5.268 15.368 7.636 3.286 1.937 8.018 2.42 11.115 4.639 1.6 1.146 3.03 4.06 1.546 6.283-1.813 2.715-7.325 4.256-12.178 3.479l-6.476-.579c-4.19.271-8.172 1.736-12.565 1.256-3.383-.369-6.569.054-8.7-1.45a3.009 3.009 0 0 1-.676-4.059c.623-.887 1.824-1.294 2.706-1.933a22.242 22.242 0 0 0 6.379-6.379 9.6 9.6 0 0 0 1.16-3.383c.264-1.673-.821-3.242.193-4.446zm10.053-9.762c2.6-2.728 10.156-1.839 14.11-3.383 4.863-.115 6.024 5.059 2.8 7.442-2.2 1.626-5.6.6-8.216.1-3.456-.665-8.707-.132-8.694-4.159zm16.431 61.085c-1.067-1.6.875-3.282 1.739-3.963a34.761 34.761 0 0 1 8.409-5.123l3-.676c4.334-.105 6.058 2.257 3.867 5.7a12.756 12.756 0 0 1-12.856 5.9c-1.713-.301-3.371-.652-4.159-1.838zm1.739 34.312c-.925 2.362-5.521 1.963-6.766.193-.791-3.47 1.6-6.316 3.77-7.636 2.413-.041 4.072 4.703 2.996 7.443zm-38.951-32.766c2.6-1.3 4.394-3.531 7.345-4.349l11.982-2.03c4.1-.066 4.3 3.42 5.8 5.9.538.889 1.874 2.57.966 3.963-.922 1.414-3.6 2.265-5.122 3.092-2.116 1.154-4.068 2.678-6.766 3.287-3.552.8-9.068-1.173-11.985-1.837-3.18-.722-7.028-.017-8.216-2.706-1.766-4.008 3.797-4.223 5.996-5.32zm55.672 19.234c-2.167-.318-4.692.169-6.476-.29-.337-.677.186-.976 1.063-1.16 3.808-.8 5.987 1.618 8.313-1.739 1.887-2.725-2.4-4.83-1.257-7.443.728-1.891 6.207-2.55 8.023-3.769 4.455-2.992 3.4-7.91 3.383-14.305l.483-.58c4.791.019 5.624 6.054 6.379 10.245l.386 4.35c.7 2.4 2.9 4.464 1.934 7.829s-8.053 6.632-11.889 7.346c-3.371.626-7.233-.028-10.342-.484zm27.355-18.171c1.723-.05 2.511.3 3.19 1.257a2.777 2.777 0 0 1 0 1.933c-.784 1.816-3.814 1.615-4.736.1-1.013-1.671.528-2.708 1.546-3.29zM190.578 221.408c.745-1.93.745-4.26 1.643-5.992 1.292-2.5 3.978-4.05 5.6-6.283 1.161-1.592 1.9-4.534 3.48-5.7 2.139-1.582 6.231-1.18 7.636-3.48.731-1.2 1.621-3.894.966-5.412-.461-1.071-1.388-1.859-1.643-3.19-.519-2.707 1.5-7.084 2.61-8.312 1.245-1.382 3.455-1.7 4.639-3.19l-2.146-.451a196.561 196.561 0 0 1 172.766-34.668c3.108 2.525 5.984 5.026 10.219 6.51 2.8.98 5.189.119 7.591-.736a198.105 198.105 0 0 1 86.146 63.731c-1.64.959-3.636 1.357-4.525 3.213-1 2.09.541 4.353 1.256 5.7a20.4 20.4 0 0 0 10.922 9.569c1.509.593 3.444.249 5.235.122a196.347 196.347 0 0 1 18.98 41.461c-3.854-.758-8.625-2.249-10.775-2.627-5.2-.913-10.4 2.884-15.465 1.933a6.59 6.59 0 0 1-2.706-.966c-1.467-1.095-2.174-3.085-3.286-4.543-1.955-2.561-4.7-3.865-5.413-7.732v-3.866c0-4.288.74-13.482-.484-16.721-.961-2.546-3.9-6.3-6.378-7.346-2.381-1-5.367-1.234-6.863-3.093-1.627-2.022-.475-3.338-1.159-6.089-.418-1.678-1.6-2.586-2.417-3.576h-.483c-2.333 2.542-6.508 7.733-10.342 8.408-4.178.737-6.705-1.827-10.342-1.256-4.271.671-8.2 4.375-11.5-.193-.743-1.029-2.412-2.939-1.933-4.93.647-2.685 5.412-5.773 1.16-9.375-2.587-2.191-6.9-1.076-9.569.1-1.927.847-5.111 1.273-6.959 2.32-1.637.928-5.195 6-5.8 8.022-1.61 5.387 1.67 8.761 5.413 10.053l5.316 1.256c2.449 1.07 3.494 4.119 5.508 5.7a25.17 25.17 0 0 0 11.213 4.446 15.288 15.288 0 0 0 5.025-.484c3.614-.582 7.149 1.027 9.956-.386 1.943-.979 5.067-5.234 7.829-4.543 1.767.793 1.368 3.837.1 4.833a14.67 14.67 0 0 1-3.48 1.546 66.505 66.505 0 0 1-10.632 3.866c-3.78.841-7.765-.617-11.695 0-2.011.316-5.138.8-7.055.1-2.548-.933-4.059-3.22-6.863-4.059a15.19 15.19 0 0 0-6.379 0c-2.358.379-4.555-.312-6.379-.581v-.966a9.526 9.526 0 0 1-7.346-6.669c-.53-1.59-.245-3.643-1.063-4.929l-3.866-2.8c-1.723-1.8-2.986-4.46-6.766-3.093-5.192 1.877.182 5.545-2.03 8.989-.749 1.165-2.082 1.838-2.61 3.286-1.195 3.279-.49 5.564-2.706 8.022-1.787 1.982-6.042 2.574-6.959 5.316-.855 2.556 2.915 8.363 3.479 11.115.445 2.167-2.566 2.85-3.189 4.35-1.024 2.465.813 4.509-1.353 6.475-5.918 5.371-4.974-7.818-7.346-9.182l-6.089-1.546-5.123-1.933c-2.862-.629-8.185-.671-10.245.58l-2.61 2.223c-1.084.844-3.094 1.835-2.706 4.059.424 2.427 3.434 7.6 5.123 8.8l4.736 2.029 3.093 1.74h2.512l3.963 1.45 3.48.386c2.868.9 5.77 3.866 8.989 5.123 2.723 1.063 6.409.4 9.665 1.16 1.98.464 3.262 1.684 4.929 2.416 3.22 1.415 7.163 1.16 11.406 1.837 1.559.249 2.977-.147 3.286 1.353-1.141 2.618-8.413 3.7-7.056 7.539.852 2.408 4.051 2.517 6.379 3.48l6.186 3.962c1.8.772 4.651.768 5.993 2.03 1.153 1.084 1.751 6.007.193 7.152s-4.607-.362-6.476-.483l-4.833-.1a42.422 42.422 0 0 1-10.438-4.446c-1.75-1.024-3.332-2.587-5.51-3.093-3.582-.832-10.862-.444-11.6 2.223.65.714 1.587.683 2.706.967a6.843 6.843 0 0 1 4.737 3.576l1.256 4.35c2.274 6.755.809 8.488-6.669 8.8h-3.673c-6.6-2.178 1.281-10.041.29-15.175-.417-2.159-2.654-1.711-3.866-3-3.014-3.195-2.365-8.808-7.443-10.052a19.959 19.959 0 0 0-8.312.387c-1.038.3-2.159 1.509-3.769 1.063-2.369-.656-3.4-4.151-7.056-2.61-3.462 1.462-5.239 5.719-8.8 6.863-4.575 1.471-6.918-2.92-11.212-2.03-3.272.678-6.057 3.834-10.536 2.8-1.522-.35-3.726-1.071-4.253-2.416-1.188-3.044 2.244-5.885-1.739-7.443a17.318 17.318 0 0 0-7.249-.386l-6.572-.194c-2.216.012-4.862.594-5.993-.869s-.576-4.1-1.063-6.283c-.6-2.68-4.35-5.733-2.32-8.892 1.347-2.1 1.9-.615 3.286-1.547l2.707-3.092c.676-1.022 1.966-2.86 1.643-4.64-.447-2.463-4.73-7.733-1.16-10.052 1.49-.968 3.047.73 3.77 1.257a12.247 12.247 0 0 0 8.215 1.45c3.605-.675 3.622-3.64 6.089-4.64 2.944-1.193 5.546 1.512 8.6.483 1.7-.57 2.4-3.112 3.383-4.446 1.71-2.307 10.018-5.539 9.376-9.375-.2-1.191-1.212-1.719-2.127-2.223-3.135-1.729-4.821-1.34-7.635.483a3.472 3.472 0 0 1-2.416.967c-3.211-.462-4.52-3.673-7.829-4.157-4-.584-4.24 8.887-10.15 3.673a5.575 5.575 0 0 1-1.546-1.643c-.032-.322-.065-.644-.1-.966 2.634-2.313 5.23-4.829 2.9-8.989-.387-.69-.567-1.358-1.257-1.74-.829-.622-3.617.279-5.218.1-1.409-2 .5-4.79 2.126-5.413 2.485.155 2.009 2.375 3.576 3.19 1.67.868 2.833-1.136 4.736-.773 1.539.293 2.289 1.643 3.672 2.126 1.138.4 2.373.166 3.77.387 5.449.859 7.611-.171 9.859-3.673 1.715-2.673.606-12.937 2.223-14.305 2.5-.308 5.012 3.732 7.442 2.03 1.129-.791 1.592-2.664 2.32-3.867a36.318 36.318 0 0 0 3-4.832 34.719 34.719 0 0 1 1.257-3.576c.7-1.264 1.943-2.428 2.319-3.963a2.937 2.937 0 0 0-1.353-3.19h-3.093c-2.012-.476-2.736-.641-4.736 0h-1.449q-.533 1.642-1.064 3.286l-3.092 6.283-3.673 5.219c-1.443.962-3.714.679-5.026 1.643q-1.353 1.355-2.707 2.707l-5.122 2.609c-1.859.764-6.132 2.579-8.41 1.257-2.036-1.183-8.048-8.195-11.6-5.8a34.845 34.845 0 0 0-4.156 4.156v1.256c-.58 1.337-3.8 3.18-4.833 4.64-1.43 2.022-2.064 4.254-4.059 5.7-1.279.929-3.988 3-6.379 2.513-2.2-.447-3.818-3.055-5.606-4.156l-3.383-1.74-1.256-3.189c-.467-.931-2.147-2.576-1.45-4.156.912-2.071 4.914-3.17 6.186-5.51 1.959-3.606-.1-6.561-3.093-7.055-4.264-.7-6 1.773-6.573 4.832-.355 1.887.234 4.311-1.063 5.22-3.578 2.5-9.414-.911-12.661 1.256l-2.707 2.61c-2.188 1.7-4.33 3.316-6.476 5.026l-2.706 2.8c-2.5 1.942-5.836 2.583-8.7 4.252l-7.249 4.157c-3.158 1.058-13.141 1.029-15.464-.484l-4.06-4.542c-1.316-1.029-3.679-2.068-4.349-3.673-.832-2.019 1.421-4.989 2.037-6.581zm197.463 48.231c-1.838 2.909-7.655 1.387-6.186-3.867l.677-.483c2.698-.107 7.668.936 5.509 4.35zm-132.968-25.821a3.5 3.5 0 0 1 3.286 1.836 3.228 3.228 0 0 1-3.963 2.9c-2.786-1.054-1.291-3.893.677-4.736zM247.6 233.2c-.793-2.988 1.753-3.49 3.77-4.349l1.16.193.579.483c.979 3.792-3.279 6.96-5.509 3.673zm-82.252 42.818c.8-3.321 5.4-3.408 8.312-4.64 2.2-.932 3.552-2.789 4.833-4.639 3.6-5.2 2.658-9.052 9.085-12.082 3.458.161 5.61 2.2 8.216 3.286 3.735 1.556 7.114 1.936 9.665 4.543 1.854 1.894 2.705 6.577 5.7 7.153 2.041.392 5.066-3.193 6.475-4.06 1.76-1.081 3.415-1.986 5.027-3.19 1.352-1.009 2.489-2.509 4.156-3.189l5.606-.483c1.764-.718 2.09-3.168 4.446-3.19 1.568 1.784 1.317 4.374 1.933 7.249l1.45 6.283a27.5 27.5 0 0 1 1.642 3.866c.46 1.836-.249 4.691.774 6.089.737 1.008 5.779 2.688 8.119 2.03 2.064-.581 1.7-4.055 3.866-4.543 1.484-.335 3.044 1.108 3.866 1.643 2.193 1.427 7.324 4.079 5.123 8.7-2.968 6.227-8.226-4.609-10.922-3.673a3.5 3.5 0 0 0-1.257 2.127c-1.588 4.8 3.306 8.035 1.45 11.888-2.046 4.246-8.792-.071-12.468.87-3.94 1.007-5.574 5.638-9.569 6.379a4.454 4.454 0 0 1-2.706-.58c-4.057-1.945-2.977-7.232-3.963-12.275l-1.45-6.572c-.323-2.087 1.007-4.718-.1-6.38-1.34-2.017-4.517-.354-5.993.29-2.576 1.124-6 2.191-7.249 4.64-1.159 2.278-1.108 7.564-3.963 8.022s-5.587-7.814-7.732-9.376c-1.479-1.076-3.94-1.219-4.833.484-.6 1.148-.482 2.6-.773 4.059a29.209 29.209 0 0 0-.58 10.149c.44 2.908-.613 5.673.29 8.119.844 2.286 2.516 3.287 3.769 5.026 1.018 1.411 1.921 2.9 2.9 4.253L200.04 317l3.189 3 1.643 2.706 1.933 2.03 2.61 3.963 3.383 2.03 5.413 4.156 5.219 3.189 3.189 2.127 2.32.773 3.093 2.32c2.506 1 4.915.173 6.379 2.126 1.184 1.579 2.046 5.509-.29 6.476-2.528 1.046-6.253-4.3-7.829-5.316l-8.6-3.383c-2.42-1.176-4.186-2.806-6.283-4.156l-4.542-2.03c-1.77-1.576-2.311-4.79-3.77-6.669l-3.769-3.576c-1.074-.687-2.484-.983-3.286-1.933-1.253-1.484-1.455-3.916-2.61-5.509l-3.866-4.06-2.9-3.963a17.28 17.28 0 0 1-3.963-3.383c-1.935-2.662-2.331-6.66-4.059-9.568-1.366-2.3-3.569-3.387-5.219-5.316l-2.127-3.383-2.9-3.673c-2.347-1.919-8.193-5.225-7.047-9.96zm56.062 172.623c-3.9-.305-2.717-6.892-4.446-9.472-1.459-2.177-5.18-2.094-7.346-3.576a15.241 15.241 0 0 1-3.963-4.446c-.739-1.238-1.2-2.924-2.319-3.77-1.753-1.323-4.925-.62-7.636-1.063a37.187 37.187 0 0 1-8.795-2.126c-2.681-1.152-3.389-3.918-5.026-6.089-3.437-4.559-13.552-12.443-8.409-20.2 2.068-3.119 5.668-2.638 9.279-4.156 10.564-.082 6.288 9.459 7.635 17.978.281 1.776.145 3.281.87 4.542 1.561 2.716 6.237 3.569 10.439 3.576h4.446c2.48.808 3.843 3.628 5.316 5.51 1.657 2.117 3.789 3.982 5.412 6.186 1.044 1.417 1.705 3.222 2.8 4.639 1.3 1.68 4.263 1.5 5.123 3.673 1.16 2.928-1.597 8.053-3.38 8.794zm21.94 43.4c-2.183 1.528-5 1.2-7.635.483-7.329-1.991-9.466-5.706-11.309-13.048-.407-1.623-1.838-8.163-.773-9.569.36-.571.9-.581 1.546-.87 3.453-.028 10.781 2.034 12.082 3.963 1.963 2.912 1.833 6.863 3.287 10.438.908 2.234 6.79 5.809 2.802 8.601zm16.431-40.982c-2.721 1.795-3.9 8.155-7.055 8.6-1.346.191-2.973-1.14-3.866-1.643-2.323-1.31-5.069-1.864-7.733-2.8-2.48-.876-5.835-1.92-6.379-4.736-.45-2.334 1.268-3.9.677-6.283-.4-1.6-1.722-2.611-2.223-4.059-.919-2.653 1.943-4.6 3.769-5.22l2.32-.29c2.681.031 6.086-.223 8.409.484l4.252 2.029 3 1.16c1.563 1.089 1.555 3.314 3.769 3.866 4.477 1.117 11.095.471 14.015-1.256 2.419-1.43 4.116-3.265 7.442-3.866l5.9-.1c3.349-.572 6-.723 7.733 1.74a2.775 2.775 0 0 1 .773 2.126c-.78 4.584-6.175 3.69-10.536 4.833-4.305 1.129-6.99 3.714-11.791 4.639-4.082.787-9.33-1.3-12.476.774zm74.55 81.167c-3.245 0-6.468-.09-9.675-.246l-5.209-2.315c-2.789-.7-12.151-3.26-14.883-4.013-.032.483-2.309 3.2-2.341 3.679-1.579-.226-1.815-.433-3.394-.659a16.38 16.38 0 0 0-2.525-.161c-2.7-.529-5.367-1.131-8.023-1.769l-2.21-.969c-2.067-.8-5.052-1.136-5.8-3.19-.57-1.569.989-3.1 1.353-4.253.581-1.829.349-4.763.87-6.475 1.044-.649 2.894-.45 4.253-.87 2.2-.682 6.83-4.981 9.569-2.417l3.382 6.476c1.234 1.63 3.913 1.268 3.867 3.963 2.635.792 12.822-1.645 13.725-2.8 1.124-1.443.935-3.582.966-5.7.022-1.517.4-3.835-.29-4.93-1.751-2.794-8.78-.316-11.5-2.126a4.248 4.248 0 0 1 1.74-4.35c1.556-1.167 4.344-.549 6.379-1.353 3.4-1.344 5.911-4.6 9.569-5.316 3.244-.633 5.5 1.62 8.6.773 2.742-.747 3.752-5.51 6.379-5.122 2.978.439 8.262 2.056 9.763 4.059 1.541 2.06 1.654 5.009 3.865 6.379l4.93 1.257 4.059 3.189c3.659 1.822 9.468 1.2 13.532 2.61 2.247.782 3.16 2.588 4.832 3.866l1.064.484c2.707-.1 2.865-2.66 3.866-4.447.75-1.339 1.917-2.41 2.319-4.059s-.4-3.19-.773-4.446l-1.546-6.959-1.837-3.576c.177-.939 3.675-2.641 4.543-3.287h.193l-2.609-.1v-.1c3.454-1.344 8.193-3.979 9.085-7.829l.1 3.48h.1c.376-1.423 1.33-4.6 2.417-5.413 2.106-1.582 5.09-1.93 7.732-3 3.875-1.564 9.294-3.793 13.918-4.446l-2.61-.1v-.1a37.709 37.709 0 0 0 6.476-2.32c1.649-.63 3.7-.763 5.026-1.74 1.817-1.341 2.694-3.735 4.833-5.123 4.553-2.952 10.98-4.012 15.561-6.959 5.127-3.3 8.985-8.094 14.4-11.115 1.6-.89 3.761-.749 5.8-1.256l5.316-2.127c2.736-1.528 4.912-3.717 7.346-5.509 1.768-1.3 3.832-2.132 5.509-3.479 1.172-.942 1.788-2.432 3.093-3.287 4.209-2.758 9.646-3.828 12.662-7.732 1.223-1.585 1.249-4.2 2.416-5.9.84-1.217 2.96-1.543 4.252-2.32a16.425 16.425 0 0 0 4.35-3.576c1.142-1.472 1.31-3.64 2.319-5.316 1.5-2.5 3.532-5.154 5.026-7.635 2.107-3.5.9-7.72 4.544-9.956l.483.194a1.93 1.93 0 0 1 .491 1.062c-20.955 86.409-98.903 150.773-191.648 150.773zm196.6-182.271l-.325 1.261-.055 3.707c-.477 4.734-1.174 9.4-1.981 14.034a5.092 5.092 0 0 1-2.893 3.233c-2.709.933-6.749-.037-8.989 1.257-3.165 1.827-3.729 6.991-5.9 9.858-.725.96-3.5 2.881-5.219 2.32-.7-.537.037-2.018.29-2.61a27.552 27.552 0 0 1 4.059-6.282l3.77-3.866c.981-1.852 1.308-3.695 2.512-5.22 1.416-1.791 3.617-2.925 4.543-5.219.666-1.648-.033-4.235.484-6.186.808-3.051 3.212-4.629 4.639-7.055 1.6-2.711-.183-3.015 2.9-5.026a2.459 2.459 0 0 1 2.494 1.417c-.075 1.466-.221 2.916-.33 4.375z"/><path class="a ptn" d="M377.216 385.816c-1.571-1.209-2.343-3.28-4.93-3.286-.5.277-.916.549-1.353.773-.638 4.3 3.437 4.556 3.383 8.989l-.58 3.286-3.093 5.7c-1.9 4.627.52 8.163 5.509 7.056 6.473-1.436 4.049-3.45 6.187-8.409 1.019-2.366 3.529-3.521 4.059-6.379.913-4.922-6.674-5.798-9.182-7.73z"/></g></svg>