<svg xmlns="http://www.w3.org/2000/svg" width="670" height="670" viewBox="0 0 670 670"><linearGradient x1="0%" x2="0%" y1="0%" y2="100%" id="a"><stop offset="0%" stop-color="#d76665"/><stop offset="100%" stop-color="#b34140"/></linearGradient><g fill="url(#a)"><path class="ptn" d="M531.751 235.453c-17.81-33.967-42.562-64.086-76.932-87.421-32.694-22.2-78.408-39.664-127.292-37.068-64.436 3.427-119.127 33.623-154.567 74.136-34.247 39.154-63.734 97.08-62.944 161.557.81 66.705 32.373 107.291 85.323 127.989 4.481 32.325 16.511 56.325 43.36 68.562 26.084 11.873 62.241 15.9 97.226 16.081 71.773.369 130.749-17.606 134.283-83.937 47.2-15.06 81.391-54.126 88.117-104.915 6.758-51.008-7.906-99.366-26.574-134.984zM142.887 369.736c-3.6 4.781-6.888 10.242-11.891 12.587-7.482-31.981-2.6-70.491 6.3-98.61 7.011-22.174 16.475-40.042 26.572-58.75.6-.13.66.273.7.7 18.785 50.977 2.271 112.251-21.681 144.073zM258.28 176.705c14.818-15.887 37.5-29.445 67.152-32.173 51.453-4.732 87.507 23.636 104.208 55.251 37.175 70.388-17.753 143.873-83.222 148.972-41.52 3.226-79.8-15.883-100.025-47.559a99.3 99.3 0 0 1-16.087-54.556c-.055-30.212 13.518-54.429 27.974-69.935zm167.866 349.009c-24.528 13.708-58.957 15.7-92.325 16.08-44.84.524-92.034-6.412-111.205-32.871-4.8-6.617-8.591-16.445-11.192-26.578-2.741-10.693-5.9-24.2-4.194-33.573 1.264-6.991 12.221-14.15 19.578-18.89 60.565-39 189.333-34.083 232.2 17.487.343 36.911-9.344 65.188-32.862 78.345zm112.592-143.391c-33.787-28.8-51.057-98.2-33.564-156.659 24.97 37.166 46.734 94.714 33.564 156.659z"/><path class="ptn" d="M377.19 424.285c-3.725 2.24-5.146 10.542-5.6 16.782-1.417 19.751-2.979 59.535 13.293 56.662 8.462-1.5 9.619-19.51 9.782-34.971.213-19.196-.507-45.446-17.475-38.473zm-90.231-1.399c-15.127 2.856-14.748 73.39 0 74.843 10.688 1.052 12.036-14.473 12.583-24.483 1.006-18.085 1.189-40.413-5.592-49.662-1.745-.433-4.414-1.184-6.991-.698z"/></g></svg>