<svg xmlns="http://www.w3.org/2000/svg" width="670" height="670" viewBox="0 0 670 670"><linearGradient x1="0%" x2="0%" y1="0%" y2="100%" id="a"><stop offset="0%" stop-color="#75caea"/><stop offset="100%" stop-color="#51a5c4"/></linearGradient><path class="ptn" d="M197.945 417.7h-64.319a212.959 212.959 0 0 0 64.319 81.285V417.7m0-246.694C147.977 209.673 116 268.735 116 335a202.185 202.185 0 0 0 4.277 41.326h77.668v-205.32m135.275-46.994a235.378 235.378 0 0 0-27.038 1.644v250.669h243.545A202.254 202.254 0 0 0 554 335c0-116.514-98.859-210.987-220.78-210.987M536.378 417.7h-230.2v126.638a235.6 235.6 0 0 0 27.038 1.65c91.2 0 169.476-52.884 203.158-128.286" fill="url(#a)"/></svg>