<svg xmlns="http://www.w3.org/2000/svg" width="670" height="670" viewBox="0 0 670 670"><linearGradient x1="0%" x2="0%" y1="0%" y2="100%" id="a"><stop offset="0%" stop-color="#b1afa0"/><stop offset="100%" stop-color="#8e8a7c"/></linearGradient><g fill="url(#a)"><path class="ptn" d="M555.555 399.354c-21.372-6.376-33.473-22.87-39.486-34.08 29.977-12.9 52.219-32.305 62.182-53.908 15.087-32.678 17.605-173.457-113.128-181-64.127-3.7-93.729 25.878-107.3 56.962l-56.123-1.654s-9.844 4.049-6.842 15.468c1.95 7.364 32.317 14.456 53.744 18.576a149.815 149.815 0 0 0-1.639 33.833s-40.247-30.165-52.821 2.5c-12.562 32.686 2.789 51.479 30.185 55.312 11.617 1.627 27.8 3.585 17.733 8.618 0 0-3.075 8.833 5.254 19.225 5.238 6.556 21.871 6.971 27.968-5.243 13.981-27.961 77.807-75.584 94.386-19.228 17.487 59.421-59.767 46.6-62.932 59.421-3.51 14.292 19.23 10.493 57.684 5.245a207.269 207.269 0 0 0 25.075-5.029c1.911 19.1 9.213 72.4 33.908 112.982 30.625 50.284 78.084 50.284 78.084 50.284L603 381.762s-13.77 27.652-47.445 17.592zM90.377 427.668s11.755-7.694 35.224-23.648c21.157-14.4 64.411-41.343 94.62 1.387 29.376 41.575-10.024 74.86-31.646 89.553l-35.848 24.389 6.031 8.9c1.935 14.559-14.651 11.414-14.651 11.414L68.815 428.384s-.548-13.683 14.641-10.34zm10.343 56.278l6.821 10.047-10.227 6.956s2.622 9.237-4.562 14.12c-6.811 4.646-16.184 6.3-22.046-2.321-7.319-10.762-2.587-19.224 3.767-23.031 7.82-4.675 15.519.464 15.519.464z"/><path class="ptn" d="M475.782 404.306s-19.3 27.825-63.46 28.986c-47.766 1.259-86.739-5.026-104.345-32.674-17.6-27.664 11.321-76.682-30.177-77.94-41.474-1.255-60.328 47.768-41.474 56.56 18.852 8.808 36.453 2.524 37.7-8.792s-7.534 15.085-2.508 26.4 12.569 8.792 15.087 5.02 31.427 64.108 124.471 76.678c69.765 9.434 83.055-10 83.055-10z"/></g></svg>