<svg xmlns="http://www.w3.org/2000/svg" width="670" height="670" viewBox="0 0 670 670"><linearGradient x1="0%" x2="0%" y1="0%" y2="100%" id="a"><stop offset="0%" stop-color="#d3f1bb"/><stop offset="100%" stop-color="#afcc97"/></linearGradient><path class="ptn" fill="url(#a)" d="M545.338 276.9c-14.071-43.1-54.221-79.879-106.423-62.825a67.793 67.793 0 0 0-12.889 5.895 67.82 67.82 0 0 0 1.583-14.078c-.087-54.919-47.565-81.573-92.914-81.5s-92.734 26.876-92.647 81.8a67.96 67.96 0 0 0 1.626 14.073 67.565 67.565 0 0 0-12.9-5.854c-52.252-16.891-92.274 20.029-106.221 63.16s-3.085 96.491 49.171 113.373a67.9 67.9 0 0 0 13.889 2.805 68.16 68.16 0 0 0-9.556 10.455c-32.21 44.492-9.463 93.971 27.246 120.569s90.82 32.76 123.035-11.732a67.819 67.819 0 0 0 6.953-12.339 67.536 67.536 0 0 0 6.992 12.317c32.367 44.39 86.444 38.036 123.1 11.342 36.623-26.706 59.212-76.265 26.861-120.646a67.882 67.882 0 0 0-9.589-10.429 68.01 68.01 0 0 0 13.879-2.847C548.731 373.385 559.409 320 545.338 276.9zM335.176 428a82.409 82.409 0 1 1 82.291-82.541A82.41 82.41 0 0 1 335.176 428z"/></svg>