<svg xmlns="http://www.w3.org/2000/svg" width="670" height="670" viewBox="0 0 670 670"><linearGradient x1="0%" x2="0%" y1="0%" y2="100%" id="a"><stop offset="0%" stop-color="#a3d1ec"/><stop offset="100%" stop-color="#80adc9"/></linearGradient><path class="ptn" fill="url(#a)" d="M558.93 191.582a4.347 4.347 0 0 0-3.825 1.161 4.438 4.438 0 0 0 0 6.27 4.392 4.392 0 0 0 4.386 1.052c-.006 0-.008.012-.013.017-3.576 3.309-9.722 1.3-20.54-4.723-36.543-20.349-88.686-47.141-137.173-52.3-43.229-4.608-82.123 8.3-118.817 45-7.533-5.49-27.494-14.967-35.2-7.259l34.981 35.011-30.7 30.695-67.841-67.832c8.082-6.982 18.343-11.777 28.149-13.009a1.957 1.957 0 0 0 .072-3.872c-34.425-5.645-94.124-46.247-109.075-61.187a1.957 1.957 0 0 0-2.767 2.767c15.447 15.435 55.772 75.955 61.223 109.071a1.955 1.955 0 0 0 1.93 1.638h.041a1.955 1.955 0 0 0 1.9-1.718c1.206-9.8 5.994-20.068 12.991-28.158l67.848 67.827-30.7 30.7-35.015-34.984c-7.714 7.716 1.774 27.663 7.259 35.19-36.7 36.7-49.61 75.581-45 118.811 5.166 48.479 31.952 100.617 52.3 137.164 6.024 10.815 8.036 16.969 4.725 20.532-.006.007-.013.009-.019.015a4.382 4.382 0 0 0-1.05-4.384 4.426 4.426 0 0 0-6.266 0 4.348 4.348 0 0 0-1.161 3.831c.057 18.986 48.437 18.912 31.1-43.774-11.856-42.848-22.479-105.96 33.829-163.052a11.3 11.3 0 0 0 9.472-19.217L258.8 325.7l30.685-30.679L398.646 404.16l3.067 33.4a.984.984 0 0 0 .281.6l85.811 85.787a.985.985 0 0 0 .692.284.963.963 0 0 0 .561-.176.981.981 0 0 0 .328-1.213l-28.127-60.835 60.818 28.127a.98.98 0 0 0 1.106-1.581l-85.787-85.8a.989.989 0 0 0-.605-.28l-31.66-2.9-110.108-110.089 30.677-30.672 7.167 7.172a11.31 11.31 0 0 0 19.23-9.468c57.088-56.309 120.209-45.685 163.07-33.836 62.681 17.336 62.755-31.047 43.763-31.098z"/></svg>