<svg xmlns="http://www.w3.org/2000/svg" width="670" height="670" viewBox="0 0 670 670"><linearGradient x1="0%" x2="0%" y1="0%" y2="100%" id="a"><stop offset="0%" stop-color="#7cabee"/><stop offset="100%" stop-color="#5786c8"/></linearGradient><path class="ptn" fill="url(#a)" d="M568 370.524s-8.7-39.343-50.748-72.3c-37.2-29.079-80.979-26.524-80.979-26.524s11.9-22.87 43.006-38.416c28.143-14.072 64.953-16.474 64.953-16.474s-22.332-32.31-73.202-50.3c-60.368-21.27-110.458-21.964-173.8-1.8-65.1 20.707-114.282 74.056-114.282 74.056s-65.846-19.195-77.75-3.647c-13.712 17.968 21.057 81.423 21.057 81.423s-9.692 20.166-7.333 54.879c2.627 38.591 25.577 66.772 25.577 66.772s.086.242.233.59c-12.037 2.743-20.431 8.806-20.431 15.837 0 9.645 15.642 17.456 34.909 17.456a72.425 72.425 0 0 0 7.79-.456c.129.137.249.271.379.408 18.3 20.126 47.108 45.022 89.631 47.605 51.241 3.041 85.895-17.253 107.687-23.139 26.312-7.13 61.624-8.573 83.48-6.627 66.078 5.951 94.2 25.151 94.2 25.151s4.134-31.575-25.128-73.617c-20.517-29.439-65.422-41.643-65.422-41.643s22.734-18.873 50.3-25.6c33.859-8.242 65.873-3.634 65.873-3.634z"/></svg>