<svg xmlns="http://www.w3.org/2000/svg" width="670" height="670" viewBox="0 0 670 670"><linearGradient x1="0%" x2="0%" y1="0%" y2="100%" id="a"><stop offset="0%" stop-color="#a8da93"/><stop offset="100%" stop-color="#86b671"/></linearGradient><path class="ptn" fill="url(#a)" d="M525.1 202.99c-.681-.752-2.357-1.772-11.218-4.941-.582-6.914.84-25.84.641-28.28-.028-.391-.028-1.165-.016-2.15 1.029-1.4 1.8-3.727.148-4.948.006-.152.012-.308.015-.462 1.342-1.47 2.012-3.843.744-4.834 1.195-1.4.792-3.876-.115-4.535.875-1.006.2-2.5-.306-3.511-.023-.019-.064-.037-.09-.058-.341-1.743-1.27-4.714-1.3-5.923a42.149 42.149 0 0 0-.022-4.769c-.221-.722-.518-1.8-.684-2.285a20.2 20.2 0 0 1-.415-3.774c.032-1.7-1.8-1.766-2.123-.947-.808-1.563-2.184-1.964-3.561-.291-.8-1.014-1.826-.969-3.349 1.217-.69-.377-1.929.695-2.628 2.556-.464-.554-2.606.854-2.874 2.62s-.087 2.09-.467 2.975c-.348.876-1.881 2.871-2.05 5.27a49.006 49.006 0 0 1-.559 4.455 110.13 110.13 0 0 1-7.156 2.021c-3.072.155-4.477-.7-7.747 1.821-1.092.83-12.367 6.482-21.3 10.4-8.947 3.928-26.766 9.335-29.4 10.929a90.435 90.435 0 0 1-18.54 8.912c-8.338 2.7-12.812 4.351-16.583 4.516-4.924.22-16.985 1.162-28.308 5.034a22.253 22.253 0 0 0-11.54 10.075l-1.891-.944a30.3 30.3 0 0 1-2.417-7.236 15.863 15.863 0 0 0 5.825-5.02c1-1.335 3.7-5.848 3.384-18.034-.038-1.691 1.948-4.394 1.166-9.029 1.881.374 2.542-.54 3.3-1.034a4.641 4.641 0 0 1 3.174-.842c1.04.256-.853-.76-.515-1.282.336-.506 3.65-2.274.926-5.205.745-.289 1.5-.782 1.425-1.629s.086-2.412-.815-3.483c-.91-1.094.543-2.5-1.021-2.769-.042-1.579-3.529-7.067-5.643-6.407a6.238 6.238 0 0 0-3.12 2.093s-9.088-4.009-11.872.6c-1.648-1.2-10.51-5.729-15.52-.762-4.01-1.16-12.08-.673-17.243 2.705-3.055 2-8.052 9.313-8.544 16.976-.167 2.723.272 6.019 2.14 6.929l-.275 1.533c-.035 1.186-4.82 7.515-5.35 8.824s.5 1.847 1.87 2.242a5.289 5.289 0 0 1 2.8 1.643 5.114 5.114 0 0 1 .041 2.719 2.176 2.176 0 0 0 1.391 2.366c-.585.693-1.19 2.231-.029 2.668 1.044.386 1.6.693 1.651 1.038a13.549 13.549 0 0 1-.048 3.321c-.223 2.3.615 3.942 2.911 4.437a50.363 50.363 0 0 0 8.542.465c2.819-.2 6.466 3.739 6.466 6.059 0 3.156.642 7.118.217 10.283-.243 1.854-1.983 1.969-5.013 4.8-.342.321-2.121 1.894-3.376 3.157a10.722 10.722 0 0 1-4.825 1.676c-1.674 0-7.141.326-11.872.851a42.41 42.41 0 0 0-14.785 4.2c-1.694.775-7.509 1.463-9.83 1.8-5.935.838-19.058 1.467-21.841 1.054-2.787-.431-9.985-1.678-14.406-1.259s-20.067 1.363-29.848 1.259-16.568.517-20.8.728-15.944 1.569-17.387 1.788-3.291.093-5.046.838a34.509 34.509 0 0 1-8.03 2.093c-2.675.281-8.3.633-10.363.7s-5.484.067-5.753.5c-.284.414.409 3.366 4.453 3.846a47.778 47.778 0 0 0 8.515 1.115 2.4 2.4 0 0 0 2.186 2.516 3.492 3.492 0 0 1 2.128.9c.277.215 2.358 1.264 7.9-.627a3.1 3.1 0 0 1 2.813.28c.755.624 4.453.635 6.789.562s12.974-.842 15.235-4.188c3.422.073 14.062 2.157 16.463 2.642s21.379 4.443 30.745 4.237 13.891-1.045 16.463-.836 14.344.927 21.155.736c7.75-.219 28.08-1.4 30.494-.142 0 1.89-.348 3.964-.456 5.862-.421 3.663-1.789 9.627-1.715 11.311.073 1.665.143 5.448 2.39 8.114 2.235 2.649 6.648 4.7 10.7 7.017s7.932 8.764 9.931 11.712a68.259 68.259 0 0 0 9.362 10.9c1.8 1.8 5.882 3.918 9.092 5.885 2.535 1.543 3.924 3.426 6.718 6.146 3.283 2.316 10.678 11.777 13.709 16.094.485.682.412 2.869.275 3.424 1.325.416 3.5-.7 4.617-1.55a21.748 21.748 0 0 0 6.99-8.732 76.179 76.179 0 0 0 10.7 5.743c-.064 1.619-.687 1.921-.386 2.757.322.84 1.481 2.319.843 2.839s-1.045 2.418-.843 3.564c.22 1.146.843 11.266 1.056 14.893s.227 19.784.946 26.482c.737 6.714 1.58 19.685 1.788 22.112.207 2.4-.112 8.194 1.156 14.4a79.155 79.155 0 0 1 .945 9.021 16.221 16.221 0 0 1-.741 5.052c-.354.654-.412 2.487 1.191 5.345.483 2.494 1.013 11.915 1.635 16.647.642 4.726 2.373 22.809 3.2 32.041a1.76 1.76 0 0 0 .735 1.268 144.41 144.41 0 0 1 1.009 16 36.392 36.392 0 0 1-1.415 6.9c-.278.741-1.89 5.281-2.858 6.236a38.31 38.31 0 0 1-9.225 5.052 60.718 60.718 0 0 1-6.725 1.325 39.778 39.778 0 0 1-4.535.514 6.89 6.89 0 0 0-3.219.875 4.9 4.9 0 0 0-3.71.8 3.561 3.561 0 0 0-2.807 1.548 3.222 3.222 0 0 0-2.363 1.536c-.913.374-1.188.291-1.536.735s-1.485 1.169-1.124 2.426c-.361.639-.728 5.512 7.83 4.618 1.395-.15 4.4.358 7.057.358s10.349-1.546 13.361-1.83 15.391-1.172 18.885-1.022c3.483.134 10.975-.15 12.172-2.29 1.182-2.11 3.254-2.813.837-10.327-2.81-8.666-2.906-15.417-.284-34.119 2.832-.438 6.606-1.313 7.759-3.4.1-3.375-3.752-28.232-4.652-35.723a2.27 2.27 0 0 0 .147-.559c.207-1.111-.949-3.621-1.262-6.709-.313-3.069.428-7.591.313-9.13s-1.047-9.34-.945-14.165c.106-4.86 3.883-30.256 5.461-37.608 1.567-7.374 9.2-49.8 10.866-58.33 20.986-10.9 38.648-23.822 47.369-30.394a310.412 310.412 0 0 0 24.361-20.756c6.527-5.876 6.885-11.041 7.489-16.757.064-4.218.747-2.7-.074-12.228.361-4.591.185-7.027.294-9.516.134-2.5 1.421-23.381 2.714-26.365.511-1.164 1.226-2.857 1.5-3.366s-.13-1.476-.815-2.22zm-32.374-6.555c-2.2.169-2.778.169-3.969.884s-.613 1.857-.441 2.911a95.218 95.218 0 0 1 .467 10.782c-.1 3.867-1.089 19.923-.652 23.919s-3.493 11.029.217 17.39c-2.123-.032-2.414 2.177-2.4 2.927-3.241 2.406-1.5-1.071-5.119 2.262-3.212 2.946-16.113 8.942-22.892 11.614-5.818 2.271-18.467 7.123-22.659 8.175-8.4-2.8-21.335-.341-34.066 2.879-.131-.765-1.814-4.028-2.964-3.695-1.152.3-1.992 1.776-2.315 1.461a6.385 6.385 0 0 1-1.459-4.1c.013-1.091-2.4-1.252-4.407-.2-2.318-.321-7.092-4.718-9.624-7.736-5.591-6.654-6.636-18.822-7.9-34.765 6.511-15.937 14.6-15.465 26.74-21.313 8.647-4.161 22.494-10.463 28.324-12.628s12.994-3.342 18.458-6.013c4.879-2.4 13.092-7.284 16.336-9.415 4.605-3.045 13.875-9.7 18.186-12.867 3.548-2.617 5.428-4.139 7.689-3.917.249.022.53.046.827.067a5.73 5.73 0 0 0-1.606 3.264c-.08 2.462 2.43 5.1 5.1 7.777 2.66 2.663 2.213 2.138 2.284 6.192.054 4.057-1.9 13.128-2.156 14.145z"/></svg>