<svg xmlns="http://www.w3.org/2000/svg" width="670" height="670" viewBox="0 0 670 670"><linearGradient x1="0%" x2="0%" y1="0%" y2="100%" id="a"><stop offset="0%" stop-color="#95d47b"/><stop offset="100%" stop-color="#71af57"/></linearGradient><path class="ptn" fill="url(#a)" d="M470.135 227.364c-28.444-34.262-67.157-65.239-112.358-84.007-22.7-9.423-52.974-17.612-83.456-15.223-29.111 2.27-52.9 13.344-70.344 28.881C154.339 201.2 134.785 299.2 157.251 387.5c12.916 50.757 39.073 91.379 77.172 119.207 36.99 27.039 96.012 45.9 155.917 29.4 50.066-13.784 85.485-45.549 108.673-87.7 11.6-21.058 20.738-47.135 22.577-75.612 4.141-64.251-23.831-112.136-51.455-145.431zM184.469 406.522a223.045 223.045 0 0 1-7.974-24.7c-11.951-46.964-10.484-96.922 1.965-138.022 20.016 13.341 35.374 42.471 37.583 77.022 2.441 38.125-12.792 69.195-31.574 85.7zm161.755 89.168c-33.722-7.1-63.182-36.053-66.134-74.058-2.452-31.533 9.8-53.43 25.194-68.258 12.916-12.445 29.144-21.778 54.064-23.629 35.293-2.61 60.621 17.109 73.52 35.71 6.106 8.825 13.458 24.1 14.686 39.9 4.61 59.234-47.419 101.675-101.33 90.335zm52.8-211.365c-22.359 5.025-48.091 2.606-70.655-7.077-31.912-13.714-61.932-42.046-61.932-79.283 0-20.567 9.85-34.564 19.942-44.1a48.627 48.627 0 0 1 4.523-3.7c23.713.061 46.655 6.577 64.406 13.946 39.095 16.236 72.7 42.76 97.832 72.223-7.2 26.143-29.261 42.414-54.112 47.991z"/></svg>