<svg xmlns="http://www.w3.org/2000/svg" width="670" height="670" viewBox="0 0 670 670"><linearGradient x1="0%" x2="0%" y1="0%" y2="100%" id="a"><stop offset="0%" stop-color="#9d7557"/><stop offset="100%" stop-color="#7a5033"/></linearGradient><path class="ptn" fill="url(#a)" d="M629.994 359.161c-8.876 1.774-43.767 4.732-46.134 5.325-53.55-8.771-104.714-17.02-138.671-22.661.122-18.758 1.548-46.852-1.4-63.461-6.8-38.238-27.036-49.5-29.4-31.162-10.677-37.714-37.83-83.2-54.805-94.739-12.607-8.573-23.757-5.433-20.368 9.5-8.078-15.757-31.833-37.686-68.884-45.3-22-4.519-25.768 5.744-13.012 33.122 35.651 77.968 48.218 120.3 56.168 180.282-1.143.1-2.321.185-3.374.305-10.317 2.134-39.031-4.407-44.444-8.362-16.475-12.031-51.734-50.84-89.2-58.158-29.458-5.755-56.063 6.086-67.754 39.474-14.678 20.777-34.63 14.242-55.453 13.725-17.889-.445-18.923 33.539 4.622 35.762 13.3 1.254 35.271 4.738 67.751 4.9 21.445 5.93 36.867 12.688 80.117 19.655 16.3 2.752 24.061 6.63 32.5 16.042 40.493 48.666 96.969 88.5 161.036 104.155a85.983 85.983 0 0 0 25.023 2.292c5.976 4.988 13.062 10.731 19.72 15.757 19.739 14.876 24.336 22.42 41.654 38.746 0 0 2.9-14.412 23.692-20.907-4.228-11.229-4.841-15.575 1.13-31.609-15.159-.058-34.464-2.791-53.311-8.343 2.506-.728 4.944-1.455 7.307-2.144 35.486-14.642 58.52-50.468 98.479-76.748 14.635-11.536 35.669-25.289 51.642-35.934-.324-.306-8.626-2.57-8.626-2.57s24.433-16.979 23.995-16.944z"/></svg>