<svg xmlns="http://www.w3.org/2000/svg" width="670" height="670" viewBox="0 0 670 670"><linearGradient x1="0%" x2="0%" y1="0%" y2="100%" id="a"><stop offset="0%" stop-color="#4e8ee3"/><stop offset="100%" stop-color="#2b6abf"/></linearGradient><path class="ptn" fill="url(#a)" d="M664.522 276.857a1.4 1.4 0 0 0-1.588-.164c-30.357 16.793-74.7 36.372-113.38 34.276l-9.346-.464c-27.829-1.318-69.9-3.308-95.053-17.218-22.339-12.343-50.032-17.5-82.333-15.331-27.158 1.826-51.59 11.976-69.947 19.882A115.925 115.925 0 0 1 283.22 288c-5.65-6.442-6.952-14.99-3.373-22.33 5.457-11.261 20.637-17.358 40.6-16.309 17.821.954 30.5 2.477 41.666 3.832 23.325 2.813 38.719 4.667 75.936-2.373 57.336-10.849 148.424-94.975 166.9-143.8a1.391 1.391 0 0 0-2.307-1.451c-29.216 30.744-152.077 38.176-178.968 36.4-6.736-.442-15.957-1.977-26.636-3.763-25.373-4.233-60.11-10.039-99.1-8.018-54.282 2.812-102.638 40.431-114.991 89.45-10.554 41.887 6.794 77.965 47.628 100.51-14.928 4.636-30.121 8.984-41.421 11.486-17.162 3.814-38.355 6.069-46.054 4.059 10.242-8.473 16.988-25.855 16.988-44.106a74.353 74.353 0 0 0-.477-8.4 1.385 1.385 0 0 0-2.417-.758c-13.928 15.753-34.422 35.153-38.456 36.409l-4 .935c-8.887 1.912-27.357 5.884-40.321 17.043-13.365 11.5-19.906 25.352-19.906 32.463a6.642 6.642 0 0 0 .412 2.034c-11.472 15.313-33.281 23.023-42.406 23.023-2.123-.463-4.31.563-5.715 2.861-3.068 5.011-2.412 15.691 3.449 22.979 10.659 13.258 58.649 19.5 83.513 7.647.86.409 5.645 2.764 5.645 2.764 11.211 5.731 23.909 12.216 47.344 5.874a1.386 1.386 0 0 0 1.032-1.326v-.018a1.386 1.386 0 0 0-1.032-1.331 12.567 12.567 0 0 1-9.468-10.325c7 .88 33.711 4.141 49.258 4.266.443 2.5 2.063 6.561 4.9 13.086 2.918 6.7 6.113 14.141 7.143 19-9.893 3.954-27.778 15.54-44.133 49.871a18.177 18.177 0 0 0-1.524 7.809c0 11.247 6.976 26.855 17.327 36.716 12.164 11.576 26.542 13.805 40.489 6.293a1.4 1.4 0 0 0 .736-1.229 1.156 1.156 0 0 0-.031-.255l-3.167-17.15a1.373 1.373 0 0 0-.7-.964C195.731 534.5 183 525.738 183 522.727v-.02c.112-5.043 21.281-32.253 38.481-37.608 16.706-5.194 18.832-6.345 18.832-18.926 0-9.5-2.759-24.742-3.949-30.854 17.934 9.294 52.785 14.959 83.266-5.53 32.059-21.567 57.719-27.964 64.34-26.6 0 0 .235.1.454.2-5.176 7.5-10.863 29.337-10.863 48.443 0 10.721 1.782 20.515 6.455 26.334 10.816 13.456 17.536 18.634 19.546 20.041-2.115 8.6-17.475 21.6-33.119 27.8-12.008 4.751-29.413 11.649-29.413 24.667a17.035 17.035 0 0 0 1.086 5.8c1 2.854 3.93 5.146 8.421 6.642 9.552 3.136 25.522 2.115 37.574-5.955 16.212-10.872 54.2-36.326 54.2-68.755-3.563-9.752-4.469-10.414-8.757-12.315l-9.71-5.5a5.932 5.932 0 0 1-2.709-4.245 9.436 9.436 0 0 1-.057-.943c0-4.392 3.521-10.659 10.481-18.692l6.627-7.009c7.83-7.882 15.232-15.322 26.35-41.5a51.9 51.9 0 0 0 4.266-20.483c0-22.013-14.373-40.889-28.423-51.577 12.55 2.436 21.708 9.089 33.138 18.867 9.58 8.209 59.341 37.482 101.533 33.666 26.417-2.389 64.145-21.729 93.865-100.273a1.407 1.407 0 0 0-.393-1.545zm-609.541 94.9c0-.031.02-.039.02-.067.084.208.05.541.149.716a1.3 1.3 0 0 1-.169-.648zm329.713 31.223c0-.033-.016-.065-.016-.086 0-.31.286-.5.536-.734h.026c-.166.24-.365.576-.546.821z"/></svg>