<svg xmlns="http://www.w3.org/2000/svg" width="670" height="670" viewBox="0 0 670 670"><linearGradient x1="0%" x2="0%" y1="0%" y2="100%" id="a"><stop offset="0%" stop-color="#add1fd"/><stop offset="100%" stop-color="#8aadd9"/></linearGradient><g fill="url(#a)"><path class="ptn" d="M380.184 255.34c10.347-8.4 44.332-35.971 44.332-35.971s27.209 40.389 34.606 51.363c9.321-7.361 36.738-28.992 36.738-28.992s15.7 20.715 26.14 34.484c-4.824-35.613-11.949-75.772-18.432-84.8-18.039-25.214-41.483-32.988-41.714-33.068l-10.771-3.47s17.762-26.118 25.377-37.3c-15.326-2.85-45.464-8.459-59.609-11.112 1.936 13.765 6.572 46.677 6.572 46.677l-7.892 1.516c-.223.045-23.893 4.595-37.636 10.024-44.064 17.4-59.223 52.082-64.42 72.754C328 229 354.358 213.686 354.358 213.686s19.212 30.955 25.826 41.654z"/><path class="ptn" d="M492.324 266.26c-9.045 7.135-37.506 29.624-37.506 29.624s-27.008-40.1-34.471-51.168c-10.1 8.179-44.874 36.412-44.874 36.412s-21.232-34.216-27.292-43.991c-3.282 1.906-10 5.813-17.649 10.249-8.256 18.382-21.789 41.485-40.567 50.81-5.071 2.519-12.9 5.3-21.953 8.518-25.689 9.1-60.883 21.594-85.5 45.655-25.1 24.526-56.112 83.259-13.131 147.742 30.079 45.138 93.3 69.505 161.048 62.1 70.417-7.7 127.8-47.586 149.754-104.114 22.493-57.96 22.024-138.349 19.652-181.917-3.4-4.499-6.083-8.034-7.511-9.92zm-130.1 67.828c-.243.392-.541.76-.813 1.135-2.741-9.3-12.309-16.189-23.713-16.189-13.516 0-24.5 9.662-24.5 21.575a19.985 19.985 0 0 0 5.645 13.77c-5.457.377-11.806-.063-16.94-2.934-4.727-2.647-7.745-6.934-9.218-13.11-4.556-19.142 3.61-30.28 28.136-38.412 13.839-4.588 23.843-1.61 29.791 1.716 6.982 3.882 12.317 10.517 13.918 17.3a18.8 18.8 0 0 1-2.305 15.149zm85.137 18.484c-2.976 5.627-6.978 9.08-12.272 10.5-6.927 1.863-14.656-.1-20.3-2.3 4.8-3.919 7.778-9.313 7.778-15.265 0-11.992-11.982-21.695-26.751-21.695a30.9 30.9 0 0 0-15.721 4.173 19.1 19.1 0 0 1 2.36-10.933c3.3-6.2 10.164-11.361 17.942-13.448 6.584-1.765 17-2.266 29.258 5.414 21.745 13.597 26.864 26.221 17.707 43.554z"/></g></svg>