<svg xmlns="http://www.w3.org/2000/svg" width="670" height="670" viewBox="0 0 670 670"><linearGradient x1="0%" x2="0%" y1="0%" y2="100%" id="a"><stop offset="0%" stop-color="#648974"/><stop offset="100%" stop-color="#3e624d"/></linearGradient><path class="ptn" fill="url(#a)" d="M480.79 225.018c-24.83-24.831-59.082-43.706-99.765-47.364-46.027-4.141-105.366-1.379-140.277 17.665C185.538 225.058 155 280.653 155 346.686c1 21.549 27.7 65.1 58.988 54.626l.233 1.586c9.306 19.755 18.366 41.678 44.735 59.621 26.4 17.954 66.448 31.493 107.469 31.493 36.137 0 82.021-12.791 104.656-28.543C507.719 439.977 515 391.794 515 328.948c0-29.428-9.483-79.2-34.21-103.93zM243.145 377.345c7.818 12.407 10.9 26.092 10.442 36.667-.408-5.694-12.881-20.7-24.1-24.685-.036.07-.054.07-.022 0-.072.011 16.207-58.2-29.555-82.311-1.169-27.966 12.391-69.555 44.478-87.977-14.254 17.935-28.506 47.363-27.13 81.853 1.842 1.38 4.14 3.682 6.437 4.6 7.356-10.575 20.693-28.511 43.138-39.318-16.924 17.244-27.5 40.237-29.8 52.194 6.441 13.334 7.41 24.492 7.356 38.167 12.014 7.02 28.882 21.6 29.894 23.916-2.595-3.569-23.262-12.095-30.1-13.1-.006.001-1.183 9.849-1.038 9.994zm211.256 74.7c-19.112 13.3-57.868 19.456-88.383 19.456-34.648 0-68.469-6.791-90.768-21.954a91.091 91.091 0 0 1-11.25-9s72.053 13.779 101.635 13.578c57.517-.386 107.617-21.714 107.617-21.714a69.077 69.077 0 0 1-18.852 19.638z"/></svg>