<svg xmlns="http://www.w3.org/2000/svg" width="670" height="670" viewBox="0 0 670 670"><linearGradient x1="0%" x2="0%" y1="0%" y2="100%" id="a"><stop offset="0%" stop-color="#98cae4"/><stop offset="100%" stop-color="#74a5bf"/></linearGradient><path class="ptn" fill="url(#a)" d="M547 354.2v-33.285c-8.379-3.519-26.043-9.155-44.292-11.8a168.138 168.138 0 0 0-7.693-30.569c14.794-11.514 27.612-25.558 33.2-32.916l-16.646-28.82c-9.034 1.137-27.176 5.093-44.32 11.942a170.38 170.38 0 0 0-21.918-22.6c7.069-17.379 11.147-35.973 12.312-45.152l-28.836-16.635c-7.247 5.5-20.97 17.992-32.385 32.478a168.481 168.481 0 0 0-30.3-8.612c-2.583-18.577-8.34-36.712-11.924-45.24H320.91c-3.53 8.385-9.164 26.055-11.8 44.3a168.547 168.547 0 0 0-30.576 7.695c-11.517-14.791-25.562-27.6-32.918-33.194l-28.832 16.645c1.145 9.03 5.1 27.175 11.955 44.31a170.149 170.149 0 0 0-22.591 21.921c-17.385-7.066-35.97-11.15-45.136-12.31l-16.65 28.834c5.5 7.246 17.987 20.964 32.476 32.374a168.3 168.3 0 0 0-8.613 30.3c-18.57 2.575-36.7 8.335-45.222 11.921v33.284c8.381 3.519 26.048 9.153 44.285 11.793a168.611 168.611 0 0 0 7.7 30.576c-14.792 11.5-27.608 25.548-33.194 32.908l16.638 28.836c9.031-1.141 27.176-5.109 44.312-11.964a170.54 170.54 0 0 0 21.908 22.606c-7.061 17.386-11.139 35.988-12.308 45.175l28.821 16.637c7.246-5.509 20.97-18 32.384-32.49a168.5 168.5 0 0 0 30.31 8.615c2.572 18.582 8.328 36.717 11.921 45.249h33.29c3.524-8.387 9.155-26.06 11.8-44.309a168.323 168.323 0 0 0 30.569-7.693c11.52 14.8 25.565 27.605 32.933 33.2l28.828-16.647c-1.137-9.034-5.108-27.185-11.966-44.32a169.946 169.946 0 0 0 22.609-21.923c17.379 7.062 35.968 11.152 45.152 12.309l16.648-28.836c-5.5-7.25-17.994-20.967-32.486-32.373a167.811 167.811 0 0 0 8.615-30.3c18.569-2.575 36.708-8.333 45.228-11.92zm-212.018 29.872a49.08 49.08 0 1 1 49.093-49.084 49.083 49.083 0 0 1-49.093 49.084z"/></svg>