<svg xmlns="http://www.w3.org/2000/svg" width="670" height="670" viewBox="0 0 670 670"><linearGradient x1="0%" x2="0%" y1="0%" y2="100%" id="a"><stop offset="0%" stop-color="#ffff83"/><stop offset="100%" stop-color="#dbda4d"/></linearGradient><g fill="url(#a)"><path class="ptn" d="M464.69 395.7c1.67-5.3 4.36-17.22 2.08-23.4-2.06-5.61-7.08-11.9-12.45-16.09l-11.58-9a2.11 2.11 0 0 0-1.92-.35 2.13 2.13 0 0 0-1.38 1.38L419.09 413l-13.33 42.45c-1.66 5.3-4.35 17.22-2.08 23.4 2.06 5.6 7.08 11.9 12.45 16.09l11.58 9a2.11 2.11 0 0 0 1.92.35 2.13 2.13 0 0 0 1.38-1.38l20.35-64.79zm36.95 2.89c-.89-2.85-3.57-8.28-7.79-11.56l-3.61-2.82a2.1 2.1 0 0 0-1.92-.35 2.13 2.13 0 0 0-1.38 1.38L466.6 450l-16.88 53.73c-1.57 5.17-1.46 8.57-.57 11.42s3.56 8.28 7.78 11.56l3.61 2.81a2.1 2.1 0 0 0 3.3-1l20.35-64.78L501.06 410c1.57-5.17 1.46-8.56.58-11.41zM186.14 257l49.64 38.69a7.67 7.67 0 0 0 11.65-2.76l6.95-14.54a14.55 14.55 0 0 0-3.38-16.93 10.22 10.22 0 0 1-.88-.61l-49.64-38.68c-.28-.22-.54-.47-.82-.7a7.6 7.6 0 0 0-10.76 3.31l-7 14.54a14.57 14.57 0 0 0 4.24 17.68zm43.64 46.48l-43.09-33.58a7.66 7.66 0 0 0-11.69 2.76l-5.7 11.93c-4.8 11.22 1.65 19.3 12.42 27.69l31.38 24.46 2.2 1.71a7.67 7.67 0 0 0 11.7-2.75l6.95-14.54a14.59 14.59 0 0 0-4.17-17.68zM226.77 172l38.13 29.72 16.53-33.35-31.91-24.87c-8-6.2-19.56-4.3-25.22 7.34l-1.69 3.49a14.57 14.57 0 0 0 4.16 17.67zm-20.28 42.41l40.65 31.68c-.53-3.85 0-9 3.38-15.37l10-20.22-39.68-30.91a7.66 7.66 0 0 0-11.65 2.75l-7 14.54a14.56 14.56 0 0 0 3.31 16.89c.38.23.69.41.99.64z"/><path class="ptn" d="M391.29 307.09l-2-1.53c-4.19-3.26-8.55-10.27-8.8-18.05l-1.68-51.67c-.09-20.5-10.43-31.6-16.58-36.4l-45.38-35.36c-12.29-9.59-18.14-5.24-22.57-.08l-35.24 71.1c-4.09 7.79-2.1 11.56-1.55 12.38l.09.13c8.39 6.48 15.75 9.18 21.87 8 5.23-1 9.95-5 13.93-11.71l14.67-27.53 29.76 23.2-17.11 35.47c-7.17 15-8 28.35 10.69 44.17l-4.85 8.48c-20.68-16.89-25.18-34.5-14.51-56.84l13.74-28.46L311.19 231l-9.4 17.63c-5.54 9.39-12.45 14.92-20.51 16.45-5.62 1.07-11.63.15-18-2.72a24.28 24.28 0 0 1-.26 20.18l-6.95 14.53a17.2 17.2 0 0 1-11.63 9.4c-.33.08-.67.12-1 .18a24.18 24.18 0 0 1-.86 18.66l-7 14.54a17.19 17.19 0 0 1-8.08 8.13l152.62 119a2 2 0 0 0 3.17-.81c.35-1.11 31.05-98.74 31.76-101.12 9.17-30.96-17.54-53.11-23.76-57.96z"/></g></svg>