<svg xmlns="http://www.w3.org/2000/svg" width="670" height="670" viewBox="0 0 670 670"><linearGradient x1="0%" x2="0%" y1="0%" y2="100%" id="a"><stop offset="0%" stop-color="#ffc929"/><stop offset="100%" stop-color="#dba404"/></linearGradient><path class="ptn" fill="url(#a)" d="M334.992 124C218.646 124 124 218.648 124 334.982S218.646 546 334.992 546 546 451.331 546 334.982 451.352 124 334.992 124zm0 148.188a62.8 62.8 0 1 1-62.809 62.79 62.809 62.809 0 0 1 62.809-62.786zm0 246.673c-96.764 0-176.246-75.153-183.3-170.146h95.128a89.222 89.222 0 0 0 176.354 0h95.133c-7.057 94.997-86.545 170.15-183.315 170.15z"/></svg>