<svg xmlns="http://www.w3.org/2000/svg" width="670" height="670" viewBox="0 0 670 670"><linearGradient x1="0%" x2="0%" y1="0%" y2="100%" id="a"><stop offset="0%" stop-color="#bcc1c5"/><stop offset="100%" stop-color="#999da1"/></linearGradient><path class="ptn" fill="url(#a)" d="M449.742 389.915c64.7-78.592 87.659-163.749 50.328-201.068l-17.708-17.693-.015.013c-.13-.137-.25-.293-.385-.429-37.343-37.336-122.527-14.38-201.146 50.319l-51.095-51.1c-8.236-8.232-24.573 2.541-41.289 19.262-16.732 16.717-27.5 33.056-19.265 41.292l51.09 51.1c-64.7 78.591-87.659 163.754-50.323 201.1l18.109 18.111c34.217 34.213 121.751 13.626 200.984-50.47l28.923 28.924 77.39 16.824-16.813-77.4zm-81.16-20.564c-59.159 59.15-126.008 88.218-149.309 64.926-19.147-19.155-2.883-67.749 36.363-117.29l35.845 35.831c8.236 8.235 23.072-4.047 39.794-20.768s29.015-31.547 20.78-39.789l-35.837-35.832c49.55-39.24 98.151-55.5 117.306-36.352 23.303 23.294-5.769 90.123-64.942 149.274z"/></svg>